<svg xmlns="http://www.w3.org/2000/svg" xmlns:xlink="http://www.w3.org/1999/xlink" width="170" height="200" viewBox="0 0 170 200">
  <defs>
    <clipPath id="clip-dcent-logo-full-colored-d_cent_mint-vertical">
      <rect width="170" height="200"/>
    </clipPath>
  </defs>
  <g id="dcent-logo-full-colored-d_cent_mint-vertical" data-name="dcent-logo-full-colored-d&apos;cent mint-vertical" clip-path="url(#clip-dcent-logo-full-colored-d_cent_mint-vertical)">
    <g id="그룹_36" data-name="그룹 36" transform="translate(-250.34 -408.85)">
      <g id="그룹_27" data-name="그룹 27" transform="translate(250.34 571.835)">
        <g id="그룹_26" data-name="그룹 26" transform="translate(0 1.199)">
          <g id="그룹_25" data-name="그룹 25">
            <path id="패스_150" data-name="패스 150" d="M280.972,508.058a12.171,12.171,0,0,0-4.345-9.69,16.727,16.727,0,0,0-11.21-3.724H250.34v6.73h15.076a8.4,8.4,0,0,1,5.685,1.967,6.466,6.466,0,0,1,2.271,5.075,6.258,6.258,0,0,1-2.259,5,8.549,8.549,0,0,1-5.7,1.892h-7.4V505.1H250.34v16.885h15.076a16.086,16.086,0,0,0,11.156-3.982A12.824,12.824,0,0,0,280.972,508.058Z" transform="translate(-250.34 -494.644)" fill="#474c55"/>
            <path id="패스_151" data-name="패스 151" d="M271.079,508.058a12.848,12.848,0,0,0,4.411,9.947,16.083,16.083,0,0,0,11.156,3.982h13.233V515.3H286.646a8.429,8.429,0,0,1-5.656-1.911,6.213,6.213,0,0,1-2.273-4.977,6.432,6.432,0,0,1,2.267-5.075,8.307,8.307,0,0,1,5.662-1.967h13.233v-6.73H286.646a16.742,16.742,0,0,0-11.216,3.724A12.217,12.217,0,0,0,271.079,508.058Z" transform="translate(-231.168 -494.644)" fill="#474c55"/>
            <path id="패스_152" data-name="패스 152" d="M336.123,494.645h-7.671v16.089l-16.6-14.918a3.932,3.932,0,0,0-3.045-1.137,3.189,3.189,0,0,0-2.471.937,3.339,3.339,0,0,0-.858,2.371v24h7.654v-16.04l16.606,14.915a4.445,4.445,0,0,0,3.383,1.322c2.015,0,3.006-1.161,3.006-3.539Z" transform="translate(-199.371 -494.644)" fill="#474c55"/>
            <path id="패스_153" data-name="패스 153" d="M353.085,494.645H322.874v6.73h11.264v20.613H341.8V501.375h11.282Z" transform="translate(-183.285 -494.645)" fill="#474c55"/>
          </g>
        </g>
        <path id="패스_154" data-name="패스 154" d="M309.061,501.375l6.321-6.73h-27.4v27.343h26.066V515.3h-18.4v-3.819h18.4v-6.412h-18.4v-3.7Z" transform="translate(-215.539 -493.446)" fill="#474c55"/>
        <path id="패스_155" data-name="패스 155" d="M272.523,501.251h-3.56l-2.677-7.23h8.91Z" transform="translate(-235.598 -494.022)" fill="#5fb9ae"/>
      </g>
      <g id="그룹_31" data-name="그룹 31" transform="translate(272.419 409.85)">
        <path id="패스_156" data-name="패스 156" d="M285.921,496.928V457.369l34.092-19.681V409.85l-56.464,32.594a3.467,3.467,0,0,0-1.736,3v65.2c0,.071.013.133.013.2Z" transform="translate(-261.813 -409.849)" fill="#6fc9c4"/>
        <g id="그룹_29" data-name="그룹 29" transform="translate(61.663)">
          <path id="패스_157" data-name="패스 157" d="M293.855,435.683l10.2-5.884V415.741l-10.2-5.892h0Z" transform="translate(-293.855 -409.85)" fill="#a4a7a9"/>
          <g id="그룹_28" data-name="그룹 28" transform="translate(10.028 19.673)">
            <path id="패스_158" data-name="패스 158" d="M345.5,432.995,323.12,420.072v14.064l-24.054,13.881L323.12,461.9v25.341l24.117,13.908V435.993A3.465,3.465,0,0,0,345.5,432.995Z" transform="translate(-299.066 -420.072)" fill="#a4a7a9"/>
          </g>
        </g>
        <g id="그룹_30" data-name="그룹 30" transform="translate(1.915 47.781)">
          <path id="패스_159" data-name="패스 159" d="M354.939,456.542l-34.124,19.695-33.9-19.578-24.108,13.922,56.284,32.494a3.416,3.416,0,0,0,3.464,0l56.464-32.592.029-.023Z" transform="translate(-262.808 -414.465)" fill="#6d6e71"/>
          <path id="패스_160" data-name="패스 160" d="M286.751,448.2v27.57l23.416-13.518V434.678Z" transform="translate(-240.673 -434.678)" fill="#6d6e71"/>
        </g>
      </g>
    </g>
  </g>
</svg>
